<svg id="visual" viewBox="0 0 900 600" width="900" height="600" xmlns="http://www.w3.org/2000/svg" xmlns:xlink="http://www.w3.org/1999/xlink" version="1.1"><g stroke-width="1" stroke-linejoin="bevel"><path d="M390 274L361 235L263 263Z" fill="#f89bbf" stroke="#f89bbf"></path><path d="M263 263L309 420L390 274Z" fill="#f89bbf" stroke="#f89bbf"></path><path d="M361 235L293 185L263 263Z" fill="#f6a6c6" stroke="#f6a6c6"></path><path d="M263 263L177 172L223 282Z" fill="#fe79a5" stroke="#fe79a5"></path><path d="M229 391L309 420L263 263Z" fill="#ff417d" stroke="#ff417d"></path><path d="M223 282L229 391L263 263Z" fill="#fa91b7" stroke="#fa91b7"></path><path d="M309 420L419 419L390 274Z" fill="#ff5188" stroke="#ff5188"></path><path d="M361 235L299 120L293 185Z" fill="#ff6092" stroke="#ff6092"></path><path d="M293 185L177 172L263 263Z" fill="#fe79a5" stroke="#fe79a5"></path><path d="M423 87L299 120L361 235Z" fill="#fe79a5" stroke="#fe79a5"></path><path d="M226 100L177 172L293 185Z" fill="#ff417d" stroke="#ff417d"></path><path d="M223 282L129 405L229 391Z" fill="#f89bbf" stroke="#f89bbf"></path><path d="M419 419L519 334L390 274Z" fill="#ff417d" stroke="#ff417d"></path><path d="M390 274L473 133L361 235Z" fill="#f6a6c6" stroke="#f6a6c6"></path><path d="M299 120L226 100L293 185Z" fill="#ff2c72" stroke="#ff2c72"></path><path d="M514 168L473 133L390 274Z" fill="#f6a6c6" stroke="#f6a6c6"></path><path d="M299 120L298 0L226 100Z" fill="#fc85ae" stroke="#fc85ae"></path><path d="M309 420L428 486L419 419Z" fill="#ff5188" stroke="#ff5188"></path><path d="M419 419L522 410L519 334Z" fill="#fa91b7" stroke="#fa91b7"></path><path d="M260 511L428 486L309 420Z" fill="#ff6d9c" stroke="#ff6d9c"></path><path d="M70 275L129 405L223 282Z" fill="#f6a6c6" stroke="#f6a6c6"></path><path d="M229 391L260 511L309 420Z" fill="#ff417d" stroke="#ff417d"></path><path d="M519 334L514 168L390 274Z" fill="#ff417d" stroke="#ff417d"></path><path d="M176 539L260 511L229 391Z" fill="#ff417d" stroke="#ff417d"></path><path d="M428 0L423 87L462 0Z" fill="#f6a6c6" stroke="#f6a6c6"></path><path d="M473 133L423 87L361 235Z" fill="#fe79a5" stroke="#fe79a5"></path><path d="M516 463L522 410L419 419Z" fill="#fe79a5" stroke="#fe79a5"></path><path d="M519 334L575 304L514 168Z" fill="#ff417d" stroke="#ff417d"></path><path d="M623 395L575 304L519 334Z" fill="#ff0066" stroke="#ff0066"></path><path d="M60 239L70 275L177 172Z" fill="#f89bbf" stroke="#f89bbf"></path><path d="M177 172L70 275L223 282Z" fill="#ff5188" stroke="#ff5188"></path><path d="M428 486L516 463L419 419Z" fill="#f89bbf" stroke="#f89bbf"></path><path d="M522 410L623 395L519 334Z" fill="#ff0066" stroke="#ff0066"></path><path d="M71 65L60 239L177 172Z" fill="#ff6d9c" stroke="#ff6d9c"></path><path d="M129 405L176 539L229 391Z" fill="#fa91b7" stroke="#fa91b7"></path><path d="M260 511L286 600L428 486Z" fill="#f89bbf" stroke="#f89bbf"></path><path d="M101 499L176 539L129 405Z" fill="#fa91b7" stroke="#fa91b7"></path><path d="M423 87L298 0L299 120Z" fill="#f89bbf" stroke="#f89bbf"></path><path d="M226 100L71 65L177 172Z" fill="#f89bbf" stroke="#f89bbf"></path><path d="M575 304L605 198L514 168Z" fill="#ff417d" stroke="#ff417d"></path><path d="M462 0L423 87L473 133Z" fill="#ff6092" stroke="#ff6092"></path><path d="M423 87L428 0L298 0Z" fill="#ff6092" stroke="#ff6092"></path><path d="M0 400L101 499L129 405Z" fill="#ff5188" stroke="#ff5188"></path><path d="M0 331L129 405L70 275Z" fill="#ff2c72" stroke="#ff2c72"></path><path d="M175 600L286 600L176 539Z" fill="#ff2c72" stroke="#ff2c72"></path><path d="M176 539L286 600L260 511Z" fill="#ff417d" stroke="#ff417d"></path><path d="M488 600L593 475L516 463Z" fill="#ff5188" stroke="#ff5188"></path><path d="M563 82L473 133L514 168Z" fill="#fa91b7" stroke="#fa91b7"></path><path d="M593 475L623 395L522 410Z" fill="#fe79a5" stroke="#fe79a5"></path><path d="M575 304L667 296L605 198Z" fill="#ff0066" stroke="#ff0066"></path><path d="M605 198L563 82L514 168Z" fill="#ff0066" stroke="#ff0066"></path><path d="M298 0L191 0L226 100Z" fill="#fc85ae" stroke="#fc85ae"></path><path d="M563 82L462 0L473 133Z" fill="#ff6092" stroke="#ff6092"></path><path d="M488 600L516 463L428 486Z" fill="#ff2c72" stroke="#ff2c72"></path><path d="M516 463L593 475L522 410Z" fill="#ff6d9c" stroke="#ff6d9c"></path><path d="M0 174L0 331L60 239Z" fill="#ff6092" stroke="#ff6092"></path><path d="M60 239L0 331L70 275Z" fill="#ff6092" stroke="#ff6092"></path><path d="M286 600L439 600L428 486Z" fill="#ff5188" stroke="#ff5188"></path><path d="M191 0L71 65L226 100Z" fill="#f89bbf" stroke="#f89bbf"></path><path d="M0 331L0 400L129 405Z" fill="#ff417d" stroke="#ff417d"></path><path d="M122 600L176 539L101 499Z" fill="#fe79a5" stroke="#fe79a5"></path><path d="M122 600L175 600L176 539Z" fill="#ff417d" stroke="#ff417d"></path><path d="M686 372L667 296L623 395Z" fill="#ff417d" stroke="#ff417d"></path><path d="M623 395L667 296L575 304Z" fill="#ff6d9c" stroke="#ff6d9c"></path><path d="M717 64L587 0L563 82Z" fill="#ff2c72" stroke="#ff2c72"></path><path d="M71 65L0 174L60 239Z" fill="#ff2c72" stroke="#ff2c72"></path><path d="M439 600L488 600L428 486Z" fill="#fe79a5" stroke="#fe79a5"></path><path d="M191 0L102 0L71 65Z" fill="#ff0066" stroke="#ff0066"></path><path d="M71 65L0 81L0 174Z" fill="#ff2c72" stroke="#ff2c72"></path><path d="M0 600L122 600L101 499Z" fill="#f89bbf" stroke="#f89bbf"></path><path d="M680 463L686 372L623 395Z" fill="#ff2c72" stroke="#ff2c72"></path><path d="M680 463L623 395L593 475Z" fill="#ff6d9c" stroke="#ff6d9c"></path><path d="M0 400L0 498L101 499Z" fill="#fe79a5" stroke="#fe79a5"></path><path d="M0 0L0 81L71 65Z" fill="#f89bbf" stroke="#f89bbf"></path><path d="M717 64L563 82L605 198Z" fill="#ff0066" stroke="#ff0066"></path><path d="M563 82L587 0L462 0Z" fill="#ff2c72" stroke="#ff2c72"></path><path d="M636 600L680 463L593 475Z" fill="#ff417d" stroke="#ff417d"></path><path d="M766 320L713 209L667 296Z" fill="#fc85ae" stroke="#fc85ae"></path><path d="M667 296L713 209L605 198Z" fill="#fc85ae" stroke="#fc85ae"></path><path d="M766 320L667 296L686 372Z" fill="#ff417d" stroke="#ff417d"></path><path d="M102 0L0 0L71 65Z" fill="#fe79a5" stroke="#fe79a5"></path><path d="M488 600L636 600L593 475Z" fill="#ff417d" stroke="#ff417d"></path><path d="M816 422L766 320L686 372Z" fill="#ff2c72" stroke="#ff2c72"></path><path d="M816 422L686 372L680 463Z" fill="#fa91b7" stroke="#fa91b7"></path><path d="M0 498L0 600L101 499Z" fill="#ff5188" stroke="#ff5188"></path><path d="M713 209L717 64L605 198Z" fill="#ff6092" stroke="#ff6092"></path><path d="M776 100L717 64L713 209Z" fill="#ff5188" stroke="#ff5188"></path><path d="M636 600L675 600L680 463Z" fill="#ff6d9c" stroke="#ff6d9c"></path><path d="M838 0L715 0L717 64Z" fill="#fc85ae" stroke="#fc85ae"></path><path d="M717 64L715 0L587 0Z" fill="#ff6d9c" stroke="#ff6d9c"></path><path d="M838 231L776 100L713 209Z" fill="#ff6092" stroke="#ff6092"></path><path d="M771 537L816 422L680 463Z" fill="#f89bbf" stroke="#f89bbf"></path><path d="M766 320L838 231L713 209Z" fill="#f6a6c6" stroke="#f6a6c6"></path><path d="M675 600L771 537L680 463Z" fill="#ff0066" stroke="#ff0066"></path><path d="M900 325L838 231L766 320Z" fill="#ff2c72" stroke="#ff2c72"></path><path d="M675 600L791 600L771 537Z" fill="#ff0066" stroke="#ff0066"></path><path d="M771 537L900 488L816 422Z" fill="#fa91b7" stroke="#fa91b7"></path><path d="M900 384L900 325L816 422Z" fill="#fa91b7" stroke="#fa91b7"></path><path d="M816 422L900 325L766 320Z" fill="#ff417d" stroke="#ff417d"></path><path d="M838 231L900 161L776 100Z" fill="#ff2c72" stroke="#ff2c72"></path><path d="M900 488L900 384L816 422Z" fill="#fa91b7" stroke="#fa91b7"></path><path d="M900 325L900 161L838 231Z" fill="#fc85ae" stroke="#fc85ae"></path><path d="M776 100L838 0L717 64Z" fill="#fc85ae" stroke="#fc85ae"></path><path d="M900 86L838 0L776 100Z" fill="#ff417d" stroke="#ff417d"></path><path d="M900 600L900 488L771 537Z" fill="#ff6d9c" stroke="#ff6d9c"></path><path d="M900 161L900 86L776 100Z" fill="#ff0066" stroke="#ff0066"></path><path d="M900 86L900 0L838 0Z" fill="#ff6d9c" stroke="#ff6d9c"></path><path d="M791 600L900 600L771 537Z" fill="#ff417d" stroke="#ff417d"></path></g></svg>