<svg id="visual" viewBox="0 0 900 600" width="900" height="600" xmlns="http://www.w3.org/2000/svg" xmlns:xlink="http://www.w3.org/1999/xlink" version="1.1"><path d="M0 97L30 98C60 99 120 101 180 97C240 93 300 83 360 79C420 75 480 77 540 84C600 91 660 103 720 107C780 111 840 107 870 105L900 103L900 0L870 0C840 0 780 0 720 0C660 0 600 0 540 0C480 0 420 0 360 0C300 0 240 0 180 0C120 0 60 0 30 0L0 0Z" fill="#004cbb"></path><path d="M0 139L30 138C60 137 120 135 180 136C240 137 300 141 360 142C420 143 480 141 540 147C600 153 660 167 720 169C780 171 840 161 870 156L900 151L900 101L870 103C840 105 780 109 720 105C660 101 600 89 540 82C480 75 420 73 360 77C300 81 240 91 180 95C120 99 60 97 30 96L0 95Z" fill="#0056d6"></path><path d="M0 337L30 333C60 329 120 321 180 304C240 287 300 261 360 255C420 249 480 263 540 284C600 305 660 333 720 327C780 321 840 281 870 261L900 241L900 149L870 154C840 159 780 169 720 167C660 165 600 151 540 145C480 139 420 141 360 140C300 139 240 135 180 134C120 133 60 135 30 136L0 137Z" fill="#0061f1"></path><path d="M0 487L30 470C60 453 120 419 180 393C240 367 300 349 360 355C420 361 480 391 540 417C600 443 660 465 720 453C780 441 840 395 870 372L900 349L900 239L870 259C840 279 780 319 720 325C660 331 600 303 540 282C480 261 420 247 360 253C300 259 240 285 180 302C120 319 60 327 30 331L0 335Z" fill="#2071ff"></path><path d="M0 565L30 560C60 555 120 545 180 540C240 535 300 535 360 540C420 545 480 555 540 559C600 563 660 561 720 551C780 541 840 523 870 514L900 505L900 347L870 370C840 393 780 439 720 451C660 463 600 441 540 415C480 389 420 359 360 353C300 347 240 365 180 391C120 417 60 451 30 468L0 485Z" fill="#4385ff"></path><path d="M0 601L30 601C60 601 120 601 180 601C240 601 300 601 360 601C420 601 480 601 540 601C600 601 660 601 720 601C780 601 840 601 870 601L900 601L900 503L870 512C840 521 780 539 720 549C660 559 600 561 540 557C480 553 420 543 360 538C300 533 240 533 180 538C120 543 60 553 30 558L0 563Z" fill="#6198ff"></path></svg>